<?xml version="1.0" encoding="utf-8"?>
<!-- Generator: Adobe Illustrator 18.1.0, SVG Export Plug-In . SVG Version: 6.00 Build 0)  -->
<svg version="1.1" id="Layer_1" xmlns="http://www.w3.org/2000/svg" xmlns:xlink="http://www.w3.org/1999/xlink" x="0px" y="0px"
	 viewBox="0 0 424.8 286.3" enable-background="new 0 0 424.8 286.3" xml:space="preserve">
<path d="M88.1,68l0.7-0.4l2.5,4l-12.4,7.8l-2.5-4c1.9-1.3,2.1-2.2,1-3.9L63.8,50c-1.1-1.7-1.9-2-4-0.8l-2.5-4l10.2-6.5
	c8.3-5.2,13.1-5.2,17.9,2.4c4.1,6.4,2.8,11.2-4.1,15.5c-0.9,0.5-1.8,1.1-2.8,1.6l5.6,8.9C85.3,68.9,86.1,69.2,88.1,68z M76,54.3
	l1.7-1.1c3.1-1.9,3.3-4.4,0.9-8.2c-2.4-3.8-4.6-4.7-7.8-2.7l-1.7,1.1L76,54.3z"/>
<path d="M104.1,58.6c2.1-0.9,2.4-1.8,1.6-3.7l-9.6-23.5c-0.8-1.9-1.6-2.3-3.8-1.5l-1.8-4.4l23.6-9.6l5.2,12.6l-3.8,1.6
	c-2.8-6.1-5.2-7.5-10.5-5.3l-2.5,1l4.7,11.6c0.1,0,0.2-0.1,0.3-0.1c2.7-1.1,2.9-2.9,1.4-6.8l3.4-1.4l6.1,14.8l-3.4,1.4
	c-1.7-4-3.1-5.2-5.9-4.1c-0.1,0-0.2,0.1-0.3,0.1l5.3,13l2.5-1c5.8-2.4,6.1-5.5,3-13.1l3.8-1.6l6,14.6L105.9,63L104.1,58.6z"/>
<path d="M145.6,44l1.1,4.6l-10.8,2.6l-1.1-4.6c2.3-0.6,2.6-1.4,2.2-3.4l-6-24.6c-0.5-2-1.2-2.5-3.5-2l-1.1-4.6l10.9-2.7l15.1,23
	L148,14.5c-0.5-2-1.4-2.5-3.5-2l-1.1-4.6l10.9-2.6l1.1,4.6c-2.3,0.6-2.7,1.4-2.2,3.4l7.8,31.9l-7.3,1.8l-16.6-25.4l5,20.5
	C142.6,44,143.5,44.5,145.6,44z"/>
<path d="M170,43.5l-0.5-4.7c2.2-0.2,2.8-1.1,2.6-3.1l-2.7-25.2c-0.2-2-1-2.7-3.2-2.5l-0.5-4.7l9.2-1c4.9-0.5,8.5-0.6,11.6,1
	c4.5,2.5,6,8,7,17.3c1,9.2,0.7,14.8-3.3,18.3c-2.6,2.2-6.1,3-10.7,3.5L170,43.5z M180.2,37.6l1.2-0.1c2-0.2,3.4-0.8,4-2
	c1.2-2.3,0.8-6.8,0-13.9c-0.8-7.2-1.3-11.6-3-13.6c-0.9-1.1-2.3-1.4-4.4-1.1l-1.2,0.1L180.2,37.6z"/>
<path d="M202.5,4.7l0-4.7l14.3,0.1l0,4.7l-0.4,0c-2.3,0-2.9,0.7-2.9,2.8l-0.3,28.1l2.1,0c6.3,0.1,7.7-2.7,7.8-10.9l4.1,0l-0.2,15.8
	l-24.8-0.3l0.1-4.7c2.3,0,2.9-0.7,2.9-2.8l0.3-25.3C205.4,5.5,204.8,4.8,202.5,4.7z"/>
<path d="M233.5,36.2c2.3,0.2,3-0.4,3.2-2.4l3.1-25.1c0.3-2-0.2-2.8-2.5-3.1l0.6-4.7l25.3,3.1l-1.7,13.5l-4.1-0.5
	c0.5-6.7-0.9-9.1-6.6-9.8l-2.7-0.3l-1.5,12.5c0.1,0,0.2,0,0.3,0c2.9,0.4,3.9-1.1,4.6-5.3l3.6,0.4l-1.9,15.9l-3.6-0.4
	c0.5-4.3-0.1-6-3.1-6.4c-0.1,0-0.2,0-0.3,0l-1.7,14l2.7,0.3c6.2,0.8,8-1.8,9-10l4.1,0.5L258.2,44l-25.3-3.1L233.5,36.2z"/>
<path d="M285.5,45.5l1.1,0.3l-1.2,4.6l-15.7-4l1.2-4.6l1.1,0.3c2.3,0.6,3,0,3.5-2l7-27.7c-4.6-0.9-6,2.1-8,9.6l-3.8-1L274.6,6
	l25.8,6.5l-3.8,15.1l-3.8-1c1.8-7.6,2.1-10.9-2.4-12.3l-7,27.7C282.8,44.1,283.2,44.9,285.5,45.5z"/>
<path d="M300,51.2c-0.8-3.7,0.8-8.9,3.8-16.3c3-7.4,5.6-12.3,8.8-14.4c3.1-2.1,6.4-2.3,10.3-0.7c3.9,1.6,6,4.1,6.8,7.7
	c0.8,3.7-0.8,8.9-3.8,16.4c-3,7.4-5.6,12.2-8.7,14.3c-3.1,2.1-6.4,2.3-10.2,0.8C303,57.3,300.8,54.8,300,51.2z M318.1,40.7
	c4.1-10.1,6-15,2.8-16.3c-3.2-1.3-5.3,3.4-9.4,13.6c-4.2,10.2-6,14.9-2.8,16.3C311.9,55.6,314,50.8,318.1,40.7z"/>
<path d="M335.5,66.9l-2.5,4l-9.4-5.9l2.5-4c2,1.2,2.9,0.9,4-0.8l13.5-21.4c1.1-1.7,1-2.6-1-3.9l2.5-4l9.5,6l-6.1,26.9l9.9-15.6
	c1.1-1.7,0.9-2.8-1-3.9l2.5-4l9.5,6l-2.5,4c-2-1.2-2.9-0.9-4,0.8l-17.6,27.8l-6.3-4l6.7-29.6L334.6,63
	C333.5,64.7,333.7,65.7,335.5,66.9z"/>
<path d="M74.5,248.1l1.3,0.7c2,1.1,2.3,1,3.4-0.9l7.2-13.4c1-1.9,0.9-2.2-1.1-3.3l-1.3-0.7l1.4-2.6l21.1,11.4l-5.1,9.4l-2.6-1.4
	c1.2-2.2,1.8-4.1,1.8-5.7c0-1.8-1.4-3-4.1-4.4l-4.2-2.3l-3.8,7l0.6,0.3c2.9,1.6,3.8,1.2,5.8-2.2l2.6,1.4l-6.1,11.4l-2.6-1.4
	c1.9-4,1.7-5-1.1-6.6l-0.6-0.3l-3.2,5.9c-1,1.9-0.8,2.3,1.1,3.3l1.6,0.9l-1.4,2.6l-12.2-6.6L74.5,248.1z"/>
<path d="M108.7,265.2l1.4,0.5c2.1,0.7,2.5,0.6,3.2-1.5l4.8-14.4c0.7-2,0.5-2.4-1.6-3.1l-1.4-0.5l0.9-2.8l24.1,8.1l-3.3,9.7l-2.8-0.9
	c1.8-5.8,0.8-7.5-4.1-9.1l-5.9-2l-2.5,7.5l1.4,0.5c3.1,1.1,3.9,0.5,5.4-3.1l2.8,0.9l-4.1,12.3l-2.8-0.9c1.2-4.3,0.9-5.3-2.2-6.3
	l-1.4-0.5l-2.9,8.6l6.4,2.2c4.4,1.5,6.1,0.1,8.4-5.6l2.8,0.9l-3.5,10.4l-24.1-8.1L108.7,265.2z"/>
<path d="M149.3,269.4l3,0.5c-0.1,5.2,2.5,8.5,7.1,9.3c3.4,0.6,5.4-0.2,5.8-2.3c0.4-2-0.8-3.3-3.6-4.6l-4-1.7c-5.4-2.3-7.7-4.9-7-9
	c0.9-4.7,5-7.3,10.6-6.3c2.8,0.5,5,1.8,6.9,3.9l1.7-1.6l2.3,0.4l-1.7,9.6l-2.9-0.5c0-4.9-2.5-8-6.6-8.7c-3.1-0.6-5,0.4-5.4,2.4
	c-0.3,1.8,0.7,2.9,3.2,4l4.9,2.1c5.2,2.2,7.4,5.3,6.7,9.4c-0.9,4.8-5.3,7.5-11,6.5c-2.9-0.5-5.4-2.1-7.9-4.7l-1.3,2.2l-2.6-0.5
	L149.3,269.4z"/>
<path d="M192.2,262.8c-4.2-0.2-6,2.1-6.3,7.5l-3-0.1l0.5-10.7l24.3,1.2l-0.5,10.7l-3-0.1c0.2-5.4-1.4-7.9-5.5-8.1
	c-0.2,0-0.4,0-0.6,0l-0.9,17.6c-0.1,2.2,0.2,2.4,2.5,2.5l2.2,0.1l-0.1,2.9l-14.9-0.7l0.1-2.9l2.2,0.1c2.2,0.1,2.5-0.1,2.7-2.3
	l0.9-17.6C192.6,262.9,192.4,262.8,192.2,262.8z"/>
<path d="M219.1,283.3l1.7-0.1c2.2-0.1,2.5-0.4,2.4-2.5l-0.9-15.2c-0.1-2.2-0.4-2.4-2.7-2.2l-1.7,0.1l-0.2-2.9l13.9-0.8l0.2,2.9
	l-1.7,0.1c-2.2,0.1-2.5,0.4-2.4,2.5l0.9,15.2c0.1,2.1,0.4,2.4,2.7,2.2l1.7-0.1l0.2,2.9l-13.9,0.8L219.1,283.3z"/>
<path d="M245.2,263.7c-0.9-1.6-1.7-2.2-3.3-1.9l-1.1,0.2l-0.5-2.9l13.3-2.3l0.5,2.9l-2,0.3c-1.4,0.2-2,0.7-1.8,1.4
	c0.1,0.5,0.3,1.1,0.8,1.9l7,12.4l2.7-14.4c0.2-0.8,0.1-1.5,0.1-1.7c-0.2-0.9-0.9-0.9-2.6-0.6l-1.7,0.3l-0.5-2.9l12.1-2.1l0.5,2.9
	l-0.8,0.1c-2,0.4-2.5,1.1-2.8,3.1l-4,21.3l-5.3,0.9L245.2,263.7z"/>
<path d="M279.7,275l0.8-0.2c1.9-0.6,2.4-1.5,2.5-3.4l0.6-21.6l5.2-1.7l13.5,17.1c1.3,1.6,1.7,2.1,3.7,1.4l0.7-0.2l0.9,2.8l-12.7,4.1
	l-0.9-2.8l2-0.6c1.4-0.4,2-0.8,1.7-1.6c-0.1-0.3-0.4-0.7-0.7-1.1l-2-2.6l-8.1,2.6l-0.1,3.5c0,0.5,0,0.9,0.1,1.2
	c0.3,0.8,0.9,0.6,2.2,0.2l1.9-0.6l0.9,2.8l-11.4,3.7L279.7,275z M287.3,254.4l-0.2,9.4l6.1-1.9L287.3,254.4z"/>
<path d="M319.8,235l1.3,2.6l-1.6,0.8c-2,1-2.2,1.4-1.2,3.3l8,15.6l4.3-2.2c2.7-1.4,4.1-2.6,4.2-4.3c0.1-1.6-0.6-3.4-1.7-5.7
	c-0.1-0.1-0.1-0.3-0.2-0.4l2.6-1.4l5.1,9.9l-21.3,11l-1.3-2.6l1.3-0.7c2-1,2.2-1.4,1.2-3.3l-6.9-13.5c-1-1.9-1.4-2-3.3-1l-1.3,0.7
	l-1.3-2.6L319.8,235z"/>
<g>
	<path fill="#BCBEC0" d="M34.5,95.5c1.1-1.8,3.5-2.3,5.3-1.1c1.8,1.1,2.3,3.5,1.1,5.3c-1.2,1.8-3.5,2.3-5.3,1.1
		C33.8,99.7,33.3,97.3,34.5,95.5z"/>
	<path fill="#BCBEC0" d="M45.6,81.2c1.4-1.6,3.8-1.7,5.4-0.3c1.6,1.4,1.7,3.8,0.3,5.4c-1.4,1.6-3.8,1.7-5.4,0.3
		C44.3,85.2,44.1,82.7,45.6,81.2z"/>
	<path fill="#BCBEC0" d="M58.3,68.7c1.6-1.4,4-1.2,5.4,0.4c1.4,1.6,1.2,4-0.4,5.4c-1.6,1.4-4,1.2-5.4-0.4
		C56.5,72.5,56.7,70.1,58.3,68.7z"/>
	<path fill="#BCBEC0" d="M370.1,71.5c1.5,1.4,1.7,3.8,0.2,5.4c-1.4,1.5-3.9,1.7-5.4,0.2c-1.6-1.4-1.7-3.8-0.2-5.4
		C366.2,70.1,368.6,70,370.1,71.5z"/>
	<path fill="#BCBEC0" d="M382.5,84.4c1.3,1.6,1.1,4-0.5,5.4c-1.6,1.3-4.1,1.1-5.4-0.5c-1.4-1.6-1.1-4,0.5-5.4
		C378.7,82.5,381.1,82.7,382.5,84.4z"/>
	<path fill="#BCBEC0" d="M393.1,99.1c1.1,1.8,0.5,4.1-1.3,5.2c-1.8,1.1-4.2,0.5-5.3-1.3c-1.1-1.8-0.5-4.2,1.3-5.3
		C389.6,96.7,392,97.3,393.1,99.1z"/>
	<path fill="#BCBEC0" d="M44.9,198.6c1.3,1.7,1,4.3-0.8,5.6c-1.7,1.3-4.3,1-5.6-0.8c-1.3-1.8-1-4.3,0.8-5.6
		C41.1,196.5,43.6,196.9,44.9,198.6z"/>
	<path fill="#BCBEC0" d="M58.4,213.7c1.6,1.5,1.7,4.1,0.1,5.7c-1.5,1.6-4.1,1.7-5.7,0.1c-1.6-1.5-1.6-4.1-0.1-5.7
		C54.2,212.2,56.8,212.1,58.4,213.7z"/>
	<path fill="#BCBEC0" d="M73.9,226.7c1.8,1.3,2.2,3.8,0.9,5.6c-1.3,1.8-3.8,2.2-5.6,0.9c-1.8-1.3-2.2-3.8-0.8-5.6
		C69.6,225.7,72.1,225.4,73.9,226.7z"/>
	<path fill="#BCBEC0" d="M350,226.1c1.8-1.3,4.3-1,5.6,0.8c1.3,1.8,1,4.3-0.8,5.6c-1.8,1.3-4.3,0.9-5.6-0.8
		C347.9,229.9,348.3,227.4,350,226.1z"/>
	<path fill="#BCBEC0" d="M363.1,212.9c1.6-1.5,4.1-1.5,5.7,0.1c1.5,1.6,1.5,4.1-0.1,5.7c-1.6,1.6-4.1,1.5-5.7-0.1
		C361.4,217,361.5,214.5,363.1,212.9z"/>
	<path fill="#BCBEC0" d="M376.4,197.8c1.3-1.8,3.8-2.1,5.6-0.8c1.8,1.3,2.2,3.9,0.8,5.6c-1.3,1.8-3.8,2.1-5.6,0.8
		C375.4,202.1,375.1,199.6,376.4,197.8z"/>
	<path fill="#BCBEC0" d="M181.7,106.9c1.3,0,2.6,0,3.9-0.1c3.4-0.2,7.3-1,9.9-3.5c1.6-1.6,2.1-3.9,1.5-6.1c9-0.3,17.6-4,20.4-14.2
		c3.4-12.2-4.1-23-14.2-28c-7.2-3.6-18.6-2.6-20.1,7.7c-1,6.7,5.1,15.5,11.6,10.9c0.2-0.1,0-0.5-0.2-0.4c-5.8,2-9.9-4.7-9.5-10.2
		c0.6-8,10-9.1,15.6-7.4c5.9,1.9,12.1,6.6,14.5,12.7c2.7,6.9,1.8,15.2-3.7,20.1c-5.9,5.3-15.9,3.4-22.6,1.3
		c-7.4-2.3-14.5-5.6-21.7-8.5c-11-4.4-22.1-8.6-33.8-9.2c1.5-0.7,3.1-1.4,4.8-1.7c3.2-0.6,6.7-0.1,9.9,0.4c6.1,1,11.8,3.3,17.5,5.6
		c9,3.7,18.4,7.5,28,9c6.5,1.1,18.1,0.1,17.2-9.8c-0.2-2.8-2.2-7.2-5.6-6.2c-2.3,0.7-3,3.5-0.8,4.8c0.2,0.1,0.5-0.1,0.4-0.4
		c-0.1-0.5-1.1-4,1.6-2.2c1.3,0.8,1.3,2.6,1.2,3.9c-0.1,2-1.4,3.1-2.8,4.2c-2.5,2.1-6.4,2-9.4,1.8c-6.7-0.5-13.8-2.2-20.3-4.1
		c-4.1-1.2-8.1-2.6-12.1-3.9c-4-1.3-7.9-3-12-3.7c-3.7-0.7-7.4-1.4-11.2-1.2c-3.2,0.1-5.5,1.6-8,3.3c-3-0.1-6,0.1-9.1,0.6
		c-6,1-12,4-14.8,9.7c-1,0-2,0-3,0c-4.5,0-8.7,0.7-12.6,3.1c-3,1.8-3.6,4.6-2.7,8.1c0.1,0.2,0.3,0.1,0.3-0.1
		c-0.5-5.7,5.1-6.1,9.1-6.5c2.5-0.3,5-0.2,7.5,0.1c-0.2,1.5,0,3.1,0.4,4.6c-1-0.2-1.9-0.4-2.9-0.5c-4.1-0.7-10,0.1-12.8,3.9
		c-1.9,2.5-2,6.6,0.6,8.6c1,0.8,2.3,0.6,3.3,0.2c1.5-0.6,1.3-1.9,0.8-3.3c-0.4-1.1-2.1-0.4-1.6,0.7c0.7,2-1.8,0.4-2.1-0.6
		c-0.5-1.3,0.3-2.3,0.9-3.3c1.3-1.9,4.5-2.2,6.5-2.4c3.1-0.3,6.5,0.8,9.8,1.9c0.9,1.3,1.8,2.6,2.8,3.5c0.1,0.1,0.1,0,0.1-0.1
		c-1-1-1.9-2.1-2.7-3.4c1.8,0.7,3.6,1.4,5.3,1.8c11.1,3.2,22.1,6.7,33.2,10c8,2.3,16.8,4.2,25.1,3.4
		C176.2,111.9,182.2,110.5,181.7,106.9z M114.9,78.5c3.9-1.9,8.6-1.7,12.8-1.4c3.9,0.3,7.9,0.9,11.7,1.9
		c14.8,3.9,28.4,12.1,43.1,16.3c4,1.2,8.5,1.9,13,1.9c0.2,1.4,0.2,2.7-0.7,4c-1.1,1.6-3.4,2.2-5.2,2.5c-4.7,0.9-9.5-0.5-14-1.9
		c-12.5-3.8-24.6-8.6-36.9-13c-9.4-3.3-19.1-5.9-28.9-6.5C111.2,80.8,112.9,79.5,114.9,78.5z M160.5,107.7
		c-13-3.2-25.6-8.2-38.5-11.9c-4.8-1.4-9.7-3-14.6-4.1c-0.1-0.8-0.2-1.5-0.2-2.3c0-0.8,0.1-1.6,0.3-2.3c1.7,0.2,3.4,0.5,5,0.7
		c13.2,2.2,25.9,7,38.6,11.4c9.2,3.2,19.3,7.1,29.3,7.6C180.1,113.1,163.4,108.4,160.5,107.7z"/>
	<path fill="#BCBEC0" d="M250.9,112.2c8.3,0.9,17.1-1,25.1-3.4c11.1-3.2,22.1-6.8,33.2-10c1.7-0.5,3.5-1.2,5.3-1.8
		c-0.8,1.2-1.7,2.4-2.7,3.4c-0.1,0.1,0,0.2,0.1,0.1c1-1,2-2.2,2.8-3.5c3.3-1.2,6.6-2.2,9.8-1.9c2,0.2,5.2,0.4,6.5,2.4
		c0.6,1,1.4,2,0.9,3.3c-0.4,1-2.9,2.5-2.1,0.6c0.4-1.1-1.2-1.9-1.6-0.7c-0.5,1.3-0.7,2.7,0.8,3.3c1.1,0.5,2.3,0.6,3.3-0.2
		c2.6-2.1,2.5-6.1,0.6-8.6c-2.8-3.7-8.7-4.5-12.8-3.9c-1,0.1-1.9,0.3-2.9,0.5c0.4-1.5,0.6-3.1,0.4-4.6c2.5-0.3,5-0.3,7.5-0.1
		c4,0.4,9.6,0.8,9.1,6.5c0,0.2,0.2,0.3,0.3,0.1c0.9-3.4,0.4-6.2-2.7-8.1c-3.9-2.4-8.1-3.1-12.6-3.1c-1,0-2,0-3,0
		c-2.9-5.7-8.9-8.7-14.8-9.7c-3.1-0.5-6.1-0.7-9.1-0.6c-2.4-1.7-4.8-3.2-8-3.3c-3.8-0.2-7.5,0.5-11.2,1.2c-4.1,0.8-8.1,2.4-12,3.7
		c-4,1.3-8.1,2.7-12.1,3.9c-6.5,1.9-13.6,3.6-20.3,4.1c-3,0.2-6.9,0.3-9.4-1.8c-1.3-1.2-2.6-2.2-2.8-4.2c-0.1-1.4,0-3.1,1.2-3.9
		c2.8-1.8,1.8,1.7,1.6,2.2c-0.1,0.2,0.2,0.5,0.4,0.4c2.2-1.3,1.5-4.2-0.8-4.8c-3.4-1-5.3,3.4-5.6,6.2c-0.8,9.9,10.8,10.8,17.2,9.8
		c9.6-1.6,19-5.4,28-9c5.7-2.3,11.4-4.6,17.5-5.6c3.2-0.5,6.6-1.1,9.9-0.4c1.7,0.3,3.2,1.1,4.8,1.7c-11.6,0.5-22.7,4.7-33.8,9.2
		c-7.2,2.9-14.3,6.2-21.7,8.5c-6.7,2.1-16.7,4-22.6-1.3c-5.5-5-6.5-13.2-3.7-20.1c2.4-6.2,8.6-10.9,14.5-12.7
		c5.6-1.8,15-0.6,15.6,7.4c0.4,5.5-3.7,12.2-9.5,10.2c-0.2-0.1-0.4,0.2-0.2,0.4c6.5,4.7,12.6-4.2,11.6-10.9
		c-1.5-10.3-12.9-11.2-20.1-7.7c-10,5-17.6,15.8-14.2,28c2.9,10.2,11.4,13.9,20.4,14.2c-0.5,2.1-0.1,4.5,1.5,6.1
		c2.6,2.5,6.5,3.3,9.9,3.5c1.3,0.1,2.6,0.1,3.9,0.1C242,110.5,248.1,111.9,250.9,112.2z M314.4,82.4c-9.9,0.6-19.6,3.2-28.9,6.5
		c-12.3,4.3-24.4,9.2-36.9,13c-4.5,1.4-9.3,2.8-14,1.9c-1.8-0.3-4-0.9-5.2-2.5c-0.9-1.3-0.9-2.6-0.7-4c4.5,0,9.1-0.8,13-1.9
		c14.7-4.3,28.3-12.4,43.1-16.3c3.8-1,7.8-1.6,11.7-1.9c4.2-0.3,8.9-0.6,12.8,1.4C311.3,79.5,313.1,80.8,314.4,82.4z M243.8,106.8
		c9.9-0.5,20.1-4.4,29.3-7.6c12.7-4.5,25.4-9.2,38.6-11.4c1.7-0.3,3.3-0.5,5-0.7c0.2,0.7,0.3,1.5,0.3,2.3c0,0.8,0,1.5-0.2,2.3
		c-4.9,1.1-9.8,2.7-14.6,4.1c-12.9,3.7-25.5,8.7-38.5,11.9C260.8,108.4,244.1,113.1,243.8,106.8z"/>
	<path fill="#BCBEC0" d="M327.5,194.2c2.7,1.8,1,6-0.8,7.7c-3.4,3.1-8.1,5.6-12.4,6.7c-16.8,4.6-34.6-1.4-51.7-1.1
		c1.9-0.2,3.9-0.3,5.8-0.2c6.5,0.3,13-0.1,19.5,0.1c10.1,0.4,22.6,0.9,31.1-5.7c2.5-2,4.4-5,3.6-8.2c-0.7-2.9-2.1-5.1-4.9-6.1
		c-2-0.7-4.5-0.2-6.1,1.3c-1.2,1.1-1.8,5.2,0.5,4.8c-0.4-0.8-0.4-1.9,0.7-1.9c0.8,0,1.4,0.9,1.8,1.5c0.9,1.6,0.6,3.8-0.8,5
		c-1.4,1.3-3.1,2.1-4.9,2.8c-1,0.4-1.9,0.8-2.9,1.2c-0.5,0.2-1.2,0.3-1.7,0.4c1.8-0.7,3.5-1.5,3.9-3.6c0.2-1.2-1.2-5.9-3.2-4.2
		c0.1,1,1.1,1,0.4,2.2c-0.5,0.9-1.5,1.6-2.4,2.1c-2.1,1.1-4.8,2.3-7.1,2.9c-5.7,1.5-11.8,3.1-17.9,3.5c-1,0.1-2.1,0.2-3.1,0.2
		c4.7-0.9,9.4-2.6,12.7-5.8c3.2-3.1,4.3-9.8,0.2-12.7c-3-2.1-7.9-1.8-9.6,1.9c-0.7,1.5,0.1,5.1,2.3,3.4c-0.8-1.2-1.3-2.3,0.5-3
		c1.4-0.6,3.1,0,4,1.2c2.3,2.8-0.2,6.6-2.4,8.6c-4.5,4-11.3,5-16.8,5.8c-1,0.2-2.1,0.3-3.3,0.4c1.9-1.7,3.1-3.7,1.9-5.5
		c-0.5,0.4-1.1,0.5-1.6,0.8c2.6-2.6-0.3-9.4-2.4-6.4c1.3,3.1-0.1,5.7-2.6,7.8c-2.9,2.5-6.5,4.2-10,5.9c1-0.8,1.9-1.6,2.8-2.6
		c3.4-3.6,3-10.1-1.6-12.9c-1.7-1-4.2-1.6-6-0.7c-1.5,0.8-2.9,2.7-1.6,4.4c0,0,0.6-0.2,0.7-0.3c-0.1-0.2-0.2-0.4-0.2-0.7
		c3.1-2.5,3.5,3.1,2.3,4.9c-1.8,2.6-4.3,3.8-5.2,7.1c0-1,0.1-2-0.3-2.9c-1,0.8-1.4,3.6-2.3,4.9c-1.5,2.2-3.1,4.4-4.6,6.6
		c-1.1,1.6-2.1,3.2-2.9,4.8c2.4-5.4,5.8-10.2,1.9-16c-2.5-3.8-9.4-5.3-11.8-0.6c-0.7,1.4-1,3.7,0.3,4.9c1.1,0.9,3.6,0.8,2.7-1.1
		c-0.3,0.3-1.1,0.5-1.3,0.8c-1.5-2.4,2.1-3.7,3.8-2.4c2.3,1.8,1.1,4.4,1.1,6.7c-0.1-0.8-0.6-1.3-1.4-1.4c0.9,1.8,0.3,4.9,0.5,7
		c0.3,2.5,0.3,5.1,0.3,7.7c0,1.5-0.1,2.9,0,4.3c-0.2-4.2,0-8.8-4.1-10.9c-2.9-1.5-7.2-0.5-7.6,3.2c-0.5,4.3,3.7,2.4,1.9,1.2
		c0.8-2.6,3.6,1,4.1,2.1c0.8,2,1.4,4.2,2.3,6.3c0.9,2.3,1.8,4.6,3,6.7c-0.6-0.3-1.4-0.5-2.4-0.5c-1.7,0.1-4.3,1.9-3,3.9
		c4-1.9,5.4,0.4,8.2,3.3c6.1,6.3,15.4,11.5,23.6,5.3c2-1.5,4.7-5.3,1.1-7.5c-0.1-0.1-0.2-0.1-0.2-0.1c-0.6,0.4-0.9,1.1-1.4,1.5
		c-0.8,0.6-1.4,0.9-2.5,0.8c-1.4-0.2-3.6-1.6-4.3-3c-1.2-2.2-2.2-8.9,1.1-9.9c-0.9-1-2.1-0.6-3.3,0c-1,0.5-2.2,2.3-3.2,2.2
		c0.1-2.7,3.1-3.8,5.2-4.5c2.8-1,6.3-0.7,8.9,0.7c2.4,1.2,5.1,3.5,7.1,5.4c1,1,3.8,4.8,5.3,3.5c-0.2-1.2-1.6-3.3-1-4.4
		c0.1,0.8,1.8,2.6,2.6,3.1c1.1,0.8,3.3,1.2,4.6,1.3c1.6,0,2.7-0.7,4.2-1c1.4-0.3,2.1,0.2,3.3,0.5c0.7-1.9-1.4-6.1-2.2-7.9
		c-0.4-1.1-1-2.5-1.9-3.4c-0.7-0.6-2-0.6-2.5-1.6c1.2,0.1,2.2,0.3,3.1,1.2c0.3-3.4-4.1-6.5-6.9-7.5c-1.7-0.6-3.7-0.5-5.3-1
		c-0.7-0.2-4.4-0.4-4.7-1c-0.4-1.1,1.7-1.2,2.3-1.2c3.8,0.1,8.6,2.8,11.9,4.6c1.4,0.8,2.5,1.8,3.8,2.6c1.4,0.8,2.9,1.3,4.3,2.1
		c2.2,1.3,4.5,1.9,6.8,3c2,1,4.3,1.4,6.7,1.6c2.2,0.2,4-0.6,6-1.3c3.5-1.2,7.2-2.7,10.4-4.4c-2.2-2.1-3.5-2.6-6.5-3.4
		c-1.4-0.4-5.4-0.4-5.6-2.2c2.2-1.7,6.6,1.8,8.6,2.3c3.3,0.8,7.6,0.6,10.8-0.7c4.9-2,9.1-4.3,12.9-8c1.5-1.5,4.7-5.7,3.4-8.1
		c-0.9,0.2-1.7,0.6-2.5,0.7c0.1-1.1,1.4-2.2,1.6-3.4c0.3-1.4-0.1-2.9-0.5-4.3C331.3,197.2,329.4,192.5,327.5,194.2z M224.8,235.4
		c0,0.1-0.1,0.2-0.2,0.1c-2.6-4.7-3.4-10.5-7.4-14.4c0-0.1,0-0.1,0.1-0.1C222.3,224.1,223.1,230.2,224.8,235.4z M277.1,213.5
		C277.1,213.5,277.1,213.6,277.1,213.5c-6.7-0.9-12.5-4.5-19.4-3.2c-0.1,0-0.1-0.2,0-0.2C264.5,208.6,270.8,210.8,277.1,213.5z
		 M260.5,201.7C260.5,201.7,260.5,201.7,260.5,201.7c-0.1,3.6-4.1,6.2-6.9,7.7c-3.7,2.1-7.7,3.6-11.4,5.7c-0.1,0-0.1-0.1-0.1-0.1
		C248.5,210.6,255.9,208.4,260.5,201.7z M227.7,215c0.2-3.6,0.8-9.9-3.9-10.8c0,0,0-0.1,0-0.1c9,0,3.1,16.7,3.3,21.4
		c0,0.1-0.1,0.1-0.1,0C226.7,222.1,227.5,218.4,227.7,215z M244.6,250.2c0.2,0,0.2,0.3,0,0.3c-5.8,0.1-10.8-3.4-13.4-8.5
		c-3.2-6.3-2.8-13,0.5-19.2c2.7-5.1,5.9-9.4,9.5-13.8c2.8-3.5,8.3-9.4,5.1-14.1c0,0,0,0,0,0c3.6,2,1.8,6.7,0.2,9.4
		c-2.5,4.3-6.4,7.5-9.6,11.2c-4.9,5.6-9,13.8-7.2,21.4C231.5,244.1,236.9,249.9,244.6,250.2z M261.6,225.6c2.9,2.8,5.2,6.2,8.6,8.4
		c0.1,0,0,0.1-0.1,0.1c-3.2-0.4-5.2-2.3-7.2-4.7c-2.8-3.2-5.2-6.3-9.3-7.8c-8.3-3.1-16.5,1.1-21.6,7.8c0,0.1-0.1,0-0.1-0.1
		c4.5-6.1,11.8-10.7,19.7-9C255.4,221.2,258.8,222.9,261.6,225.6z M294.9,225.1c-4.7,1.2-9.6-1-13.7-3.1c-4.7-2.4-9.2-5.4-14.4-6.7
		c-10.7-2.7-23.1-0.8-30.5,8.1c-0.1,0.1-0.2,0-0.1-0.1c6.1-8.5,17.8-11.1,27.8-9.7c5.4,0.8,10.2,2.9,15,5.3c5.2,2.6,10.3,4.6,15.9,6
		C294.9,225,294.9,225.1,294.9,225.1z M322.7,210c-2.5,5.6-11.5,6.1-16.7,5.8c-8.4-0.6-16.7-2.6-25.2-3.3c-0.1,0-0.1-0.2,0-0.2
		c14.1,0.6,28.9,6.1,41.7-2.4C322.6,209.9,322.7,209.9,322.7,210z"/>
	<path fill="#BCBEC0" d="M90.6,198.4c-0.5,1.3-0.8,2.8-0.5,4.3c0.2,1.2,1.5,2.3,1.6,3.4c-0.9-0.1-1.7-0.5-2.5-0.7
		c-1.3,2.4,1.8,6.5,3.4,8.1c3.8,3.7,8,6.1,12.9,8c3.2,1.3,7.4,1.5,10.8,0.7c2-0.5,6.4-4,8.6-2.3c-0.2,1.8-4.2,1.9-5.6,2.2
		c-3,0.7-4.3,1.3-6.5,3.4c3.3,1.7,7,3.3,10.4,4.4c2,0.7,3.9,1.5,6,1.3c2.4-0.2,4.6-0.6,6.7-1.6c2.3-1.1,4.6-1.7,6.8-3
		c1.4-0.8,2.9-1.3,4.3-2.1c1.3-0.8,2.5-1.8,3.8-2.6c3.3-1.8,8.1-4.5,11.9-4.6c0.6,0,2.7,0.1,2.3,1.2c-0.3,0.6-3.9,0.8-4.7,1
		c-1.7,0.4-3.6,0.4-5.3,1c-2.8,1-7.3,4.1-6.9,7.5c1-0.9,1.9-1.2,3.1-1.2c-0.5,1-1.8,0.9-2.5,1.6c-0.9,0.8-1.5,2.3-1.9,3.4
		c-0.7,1.8-2.9,6-2.2,7.9c1.2-0.2,1.9-0.8,3.3-0.5c1.5,0.3,2.6,1,4.2,1c1.4,0,3.5-0.5,4.6-1.3c0.7-0.5,2.5-2.3,2.6-3.1
		c0.6,1.1-0.8,3.2-1,4.4c1.5,1.4,4.3-2.5,5.3-3.5c1.9-1.9,4.6-4.2,7.1-5.4c2.7-1.3,6.1-1.6,8.9-0.7c2.1,0.7,5,1.9,5.2,4.5
		c-1,0-2.2-1.8-3.2-2.2c-1.1-0.5-2.3-1-3.3,0c3.4,1,2.3,7.7,1.1,9.9c-0.7,1.3-2.9,2.7-4.3,3c-1.1,0.2-1.8-0.1-2.5-0.8
		c-0.5-0.5-0.9-1.1-1.4-1.5c-0.1,0-0.2,0.1-0.3,0.1c-3.6,2.2-0.9,6,1.1,7.5c8.1,6.2,17.5,1,23.6-5.3c2.8-2.9,4.3-5.2,8.2-3.3
		c1.3-1.9-1.3-3.8-3-3.9c-1-0.1-1.7,0.1-2.4,0.5c1.2-2.1,2.1-4.5,3-6.7c0.9-2.1,1.5-4.2,2.3-6.3c0.4-1.1,3.3-4.7,4.1-2.1
		c-1.8,1.2,2.4,3.1,1.9-1.2c-0.4-3.6-4.8-4.6-7.6-3.2c-4.1,2.1-3.9,6.7-4.1,10.9c0-1.4,0-2.8,0-4.3c-0.1-2.6-0.1-5.2,0.3-7.7
		c0.3-2-0.4-5.2,0.5-7c-0.8,0-1.2,0.5-1.4,1.4c-0.1-2.3-1.2-4.9,1.1-6.7c1.7-1.3,5.3,0,3.8,2.4c-0.3-0.3-1.1-0.5-1.3-0.8
		c-0.9,1.8,1.6,2,2.7,1.1c1.2-1.1,1-3.5,0.3-4.9c-2.5-4.7-9.3-3.2-11.8,0.6c-3.9,5.8-0.5,10.6,1.9,16c-0.9-1.6-1.9-3.3-2.9-4.8
		c-1.5-2.2-3.1-4.3-4.6-6.6c-0.9-1.3-1.3-4.1-2.3-4.9c-0.5,0.9-0.3,1.8-0.3,2.9c-0.9-3.3-3.3-4.5-5.2-7.1c-1.2-1.7-0.9-7.4,2.3-4.9
		c0,0.2-0.1,0.5-0.2,0.7c0.1,0,0.6,0.2,0.7,0.3c1.3-1.6-0.1-3.6-1.6-4.4c-1.8-0.9-4.4-0.4-6,0.7c-4.6,2.8-5,9.3-1.6,12.9
		c0.9,0.9,1.8,1.8,2.8,2.6c-3.6-1.7-7.2-3.4-10-5.9c-2.4-2.1-3.8-4.8-2.6-7.8c-2.1-3-5,3.8-2.4,6.4c-0.5-0.3-1.2-0.4-1.6-0.8
		c-1.2,1.9,0,3.8,1.9,5.5c-1.1-0.2-2.2-0.3-3.3-0.4c-5.5-0.8-12.4-1.8-16.8-5.8c-2.3-2-4.7-5.8-2.4-8.6c0.9-1.2,2.6-1.8,4-1.2
		c1.9,0.8,1.3,1.8,0.5,3c2.2,1.7,3-1.9,2.3-3.4c-1.7-3.7-6.7-4-9.6-1.9c-4.1,2.9-3,9.6,0.2,12.7c3.2,3.2,8,4.9,12.7,5.8
		c-1-0.1-2.1-0.2-3.1-0.2c-6-0.4-12.1-2-17.9-3.5c-2.3-0.6-5-1.8-7.1-2.9c-0.9-0.5-1.9-1.2-2.4-2.1c-0.7-1.2,0.3-1.2,0.4-2.2
		c-2-1.7-3.4,3-3.2,4.2c0.4,2.1,2.2,2.9,3.9,3.6c-0.6-0.1-1.2-0.2-1.7-0.4c-1-0.4-1.9-0.8-2.9-1.2c-1.8-0.7-3.5-1.6-4.9-2.8
		c-1.4-1.3-1.7-3.4-0.8-5c0.3-0.6,1-1.6,1.8-1.5c1.1,0.1,1.1,1.1,0.7,1.9c2.3,0.5,1.6-3.7,0.5-4.8c-1.6-1.4-4.1-2-6.1-1.3
		c-2.8,1-4.2,3.3-4.9,6.1c-0.8,3.2,1.1,6.3,3.6,8.2c8.5,6.6,21,6.1,31.1,5.7c6.5-0.2,13,0.2,19.5-0.1c1.9-0.1,3.8,0,5.8,0.2
		c-17.2-0.3-35,5.6-51.7,1.1c-4.3-1.2-9-3.7-12.4-6.7c-1.9-1.7-3.5-5.9-0.8-7.7C92.9,192.5,91,197.2,90.6,198.4z M205.1,221
		C205.1,221,205.2,221.1,205.1,221c-4,4-4.7,9.7-7.3,14.5c-0.1,0.1-0.3,0-0.2-0.1C199.2,230.2,200,224.1,205.1,221z M164.7,210.1
		c0.1,0,0.1,0.2,0,0.2c-6.9-1.2-12.8,2.3-19.4,3.3c0,0,0,0,0,0C151.5,210.8,157.8,208.6,164.7,210.1z M180.2,215
		c0.1,0,0,0.2-0.1,0.1c-3.7-2.1-7.7-3.6-11.4-5.7c-2.7-1.5-6.8-4.2-6.9-7.7c0,0,0-0.1,0.1,0C166.4,208.4,173.8,210.6,180.2,215z
		 M195.3,225.5c0,0.1-0.1,0.1-0.1,0c0.1-4.6-5.7-21.4,3.3-21.4c0,0,0,0.1,0,0.1c-4.7,0.9-4.1,7.2-3.9,10.8
		C194.8,218.4,195.6,222.1,195.3,225.5z M192.5,236.9c1.8-7.6-2.3-15.8-7.2-21.4c-3.2-3.7-7.1-6.9-9.6-11.2
		c-1.6-2.8-3.4-7.4,0.2-9.4c0,0,0,0,0,0c-3.2,4.7,2.3,10.6,5.1,14.1c3.6,4.4,6.9,8.7,9.5,13.8c3.2,6.2,3.7,12.9,0.5,19.2
		c-2.6,5.1-7.7,8.6-13.4,8.5c-0.2,0-0.2-0.3,0-0.3C185.4,249.9,190.8,244.1,192.5,236.9z M170.7,220.4c7.8-1.7,15.2,2.9,19.7,9
		c0,0.1-0.1,0.1-0.1,0.1c-5.1-6.7-13.2-10.9-21.6-7.8c-4.2,1.5-6.5,4.6-9.3,7.8c-2,2.3-4.1,4.3-7.2,4.7c-0.1,0-0.1-0.1-0.1-0.1
		c3.4-2.2,5.8-5.6,8.6-8.4C163.5,222.9,166.9,221.2,170.7,220.4z M127.4,225c5.6-1.4,10.7-3.5,15.9-6c4.9-2.4,9.6-4.5,15-5.3
		c10-1.4,21.6,1.2,27.8,9.7c0.1,0.1-0.1,0.2-0.1,0.1c-7.3-8.9-19.7-10.8-30.5-8.1c-5.2,1.3-9.7,4.2-14.4,6.7
		c-4.1,2.1-9,4.3-13.7,3.1C127.4,225.1,127.4,225,127.4,225z M99.7,209.9c12.8,8.5,27.7,3,41.7,2.4c0.1,0,0.1,0.2,0,0.2
		c-8.4,0.7-16.7,2.7-25.2,3.3c-5.2,0.3-14.2-0.2-16.7-5.8C99.6,209.9,99.7,209.9,99.7,209.9z"/>
</g>
<g>
	<g>
		<path d="M158.2,177.8h-24.9v-4.1c0-1.7,0.7-2.6,2.1-2.6c0.2,0,0.6,0,1,0.1c0-0.2,0.1-0.4,0.1-0.6c0-0.2,0-0.4,0-0.6
			c0-0.4,0-0.9-0.1-1.4c-0.1-0.5-0.3-1.1-0.5-1.7c-0.2-0.5-0.4-1-0.6-1.5c-0.2-0.5-0.4-1-0.6-1.5l-0.3-0.3c-1.5,1.7-3.4,2.6-5.6,2.9
			c-0.9-0.1-2.2-0.5-4.1-1.3c-0.9-0.4-1.7-0.6-2.3-0.8c-0.7-0.2-1.3-0.3-1.7-0.3c-1.2,0-2.3,0.4-3.3,1.2c-1,1.9-1.5,3.8-1.6,5.6
			c0.5,0.6,1.7,0.9,3.5,0.9v6.3h-15.6c0-0.4,0-1.2-0.2-2.1c-0.1-1-0.2-1.7-0.2-2.1c0-1.5,0.8-2.3,2.3-2.3l2.1-2.3l15.1-44.6
			l14.9-0.2l0.9,1.2l15.8,43.7c0.2,0.9,0.8,1.5,1.7,1.8l2.3,0.8L158.2,177.8z M132.6,158.9c-0.8-2.2-1.4-4.1-2-5.6
			c-0.6-1.5-1-2.7-1.3-3.6c-0.6-1.7-1.3-3.3-1.9-4.7c-0.6-1.5-1.2-2.8-1.8-4.1c-0.2,0.9-0.6,2.2-1.1,3.7c-0.5,1.5-1.1,3.3-1.9,5.5
			c-0.7,1.9-1.2,3.6-1.7,5.1c-0.4,1.5-0.8,2.7-1,3.7c0.9-1,2.1-1.5,3.4-1.5c1,0,2.2,0.3,3.7,0.9c1.8,0.8,3,1.2,3.6,1.2L132.6,158.9z
			 M141.5,171.5h1.9c-1.6-4.4-3.7-9.8-6.1-16.2c-2.5-6.4-5.4-13.9-8.7-22.5l-0.7,2.5L141.5,171.5z"/>
	</g>
</g>
<path d="M63.8,176.7c-0.2,0.8-0.3,2-0.3,3.6v3.7H39.1c-0.4-1.7-0.9-3.5-1.6-5.6c-0.7-2-1.6-4.2-2.7-6.6c-1.6-3.6-2.9-6.4-3.8-8.3
	c-0.9-1.9-1.4-3.1-1.5-3.4c-0.5-0.3-1.1-0.4-1.8-0.4h-1.9c0.1,0.8,0,2.3-0.2,4.3c-0.1,1.1-0.2,2.1-0.3,2.8c-0.1,0.8-0.1,1.4-0.1,1.9
	c0,3.4,1,5.6,2.9,6.8h1.8c0.7,0,1.2,0.2,1.5,0.7v7.7H0.3c-0.2-0.9-0.3-2.2-0.3-4v-4.1c2.5-0.1,4-1.1,4.5-2.8l-0.3-49.8
	c-0.2-0.8-0.7-1.3-1.5-1.5c-0.8-0.2-1.5-0.5-2.3-0.6c-0.2-1-0.3-2.5-0.3-4.4v-4.4c1.1,0.1,2.3,0.1,3.5,0.1c1.2,0,2.4,0,3.7,0
	c1.1,0,2.4,0,3.9,0c1.5,0,3.3-0.1,5.4-0.1c2.1-0.1,3.9-0.1,5.4-0.1c1.5,0,2.8,0,3.8,0c10.2,0,18.4,1.3,24.5,3.9
	c3,1.9,5.6,4.3,7.7,7.2c2.4,3.2,3.6,6.5,3.9,9.8c0.7,8.4-2.2,15-8.7,19.8c-1.1,0.5-2.7,1.6-5,3.1c0.8,0.8,1.7,2.1,2.7,3.8
	c1,1.7,2.2,3.8,3.5,6.4c2.2,4.6,4.5,7.6,7.1,9.1c0.7-0.1,1.3-0.1,1.8,0.1C63.7,175.5,63.9,176,63.8,176.7z M9.8,175.5h1.9v-53.8H9.8
	V175.5z M34.1,149.7c4.3-3.1,6.5-7.6,6.5-13.6c0-3.1-0.8-5.9-2.3-8.3c-2.7-4.2-6.3-6.4-10.8-6.4c-0.3,0-0.6,0-0.8,0
	c-0.3,0-0.6,0-0.8,0.1v29.8c0.3,0.1,0.6,0.1,0.8,0.1c0.3,0,0.6,0,0.8,0C29.2,151.3,31.4,150.8,34.1,149.7z M43.6,175.5l-6.8-15.8
	h-2.4c1.4,3.5,3.7,8.8,7,15.8H43.6z M40.6,150.3c5-3,7.5-7.7,7.5-14.1c0-3.2-0.9-6.3-2.7-9.2c-1.7-2.9-4.1-4.8-7-5.6
	c4.6,3.2,7.1,7.6,7.5,13.2c0.6,6.8-1.9,12.4-7.5,16.6L40.6,150.3z"/>
<path d="M105.4,178l-8.1,0H63.3c0.1-0.3,0.2-0.7,0.2-1.2c0-0.2,0-0.4-0.1-0.8c0-0.3-0.1-0.7-0.1-1c0-0.3-0.1-0.7-0.1-1
	c0-0.3-0.1-0.6-0.1-0.7c0-1.4,0.6-2.1,1.7-2.1c0.2,0,0.6,0,1,0.1l1.1-2.1l-0.2-36.7c-0.7-1.3-1.8-2-3.3-1.9
	c-0.1-0.7-0.2-1.8-0.2-3.1c0-0.9,0-1.7,0-2.2c0-0.5,0-0.9-0.1-1.1l36.7-0.2c1.7-0.5,2.7-0.7,3.1-0.7l1,12c-0.3,0-1,0-2.1,0.1
	c-1.1,0.2-1.9,0.3-2.4,0.3c-1.6,0-2.4-0.8-2.3-2.5c-1.8-1.7-4.4-2.6-7.9-2.6c-0.7,0-1.6,0-2.4,0.1c-0.9,0.1-1.8,0.2-2.9,0.4
	l0.3,11.5l12.4,0.3c1.2-0.7,1.6-1.9,1.4-3.6c0.7-0.2,1.6-0.3,2.8-0.3h2.9l0.3,14.9c-2.7,0.3-4.7,0.2-5.9-0.3
	c0.2-1.7-0.2-2.8-1.4-3.5H84.4v21c1.7,0.1,3.1,0.2,4.3,0.2c5,0,8.3-1.6,9.8-4.7l0.7-3.8l5.9,0.2L105.4,178z M71.1,171.7h1.6v-40.4
	l-1.6-0.3V171.7z"/>
<path d="M196.8,162.1l-1.2,16.6c-4.4-0.8-9.4-1.2-15.1-1.2c-2,0-5,0.1-9.1,0.2c-2,0-3.8,0.1-5.3,0.1c-1.5,0-2.8,0-3.9,0
	c-1.1,0-2.2,0-3.2,0c-1,0-2-0.1-3-0.1c0-0.3,0-1.1-0.2-2.2c-0.1-0.6-0.2-1.1-0.2-1.6c0-0.4-0.1-0.8-0.1-1c0-1.5,0.6-2.3,1.9-2.3
	c0.1,0,0.3,0,0.4,0c0.1,0,0.3,0.1,0.5,0.1l1-1.7l-0.3-38c-0.9-1.2-1.9-1.6-3-1.4l-0.6-6.3c1.3-0.1,2.8-0.2,4.2-0.3
	c1.5-0.1,3.1-0.2,4.8-0.2c2.2,0,5.3,0,9.2,0c2.2,0,4.1,0.1,5.6,0.1c1.5,0,2.7,0,3.6,0v6.4c-0.6,0.1-1.1,0.2-1.7,0.2
	c-0.6,0-1.1,0.1-1.7,0.1c-1.3,0.2-2.1,0.8-2.6,1.9v38.7l0.6,0.4h5.4c1,0,1.9-0.1,2.7-0.5c0.8-0.3,1.4-0.7,2-1.2
	c1.8-1.4,2.9-3.8,3.3-7.1L196.8,162.1z M163.7,171.3h1.6v-40.9h-1.9L163.7,171.3z"/>
<path d="M288.1,126c-8.7,22.3-14.8,39.9-18.2,52.9h-15.5c-0.8-3.6-3.1-10-6.8-19.4l-3.6,9.6c-0.7,1.9-1.2,3.6-1.6,5.3
	c-0.4,1.7-0.7,3.3-0.9,4.7h-15.3c-1.9-5.7-4.2-12.5-6.9-20.2c-2.7-7.8-5.9-16.6-9.5-26.6c-0.4-1.1-1.6-1.8-3.4-2l-0.3-6.1l23.8-0.5
	c0,0.2,0,0.5,0,0.9c0,0.4,0.1,0.8,0.1,1.4c0.1,1.1,0.2,1.9,0.2,2.4c0,1.8-0.5,3-1.5,3.6c1.1,3.8,2.4,8.1,4,12.9
	c1.6,4.9,3.5,10.4,5.6,16.5l5.1-13.9l-2.5-8c-0.5-1.6-1-3.1-1.5-4.4c-0.5-1.3-1.1-2.4-1.7-3.4c-0.6-0.9-1.4-1.3-2.6-1.2
	c0-0.4,0.1-0.8,0-1.4c0-0.6-0.1-1.2-0.2-1.9c-0.1-0.7-0.1-1.4-0.2-1.9c0-0.5,0-1,0-1.4l19.2-0.3c0.2,0.7,0.7,1.9,1.3,3.9
	c0.6,1.9,1.5,4.5,2.5,7.8l4.4-7.1c0.9-1.4,2-2.5,3.2-3.2c1.2-0.7,2.4-1.2,3.6-1.4c1.6-0.5,3.5-0.5,5.9-0.2c1.6,0.2,2.9,0.4,3.9,0.5
	c1,0.1,1.5,0.2,1.8,0.2c1.5,0,3-0.3,4.3-1L288.1,126z M228.6,172.7h1.7v-0.8l-14.8-40.8h-2L228.6,172.7z M257.1,172.7
	c0.3,0,0.9,0,1.7-0.3l-15.1-41.5c-0.3,0-0.9,0-1.7,0.3L257.1,172.7z M266.5,161.2c1-2.6,2.1-5.7,3.5-9.5c1.3-3.8,2.8-8.3,4.6-13.5
	c-0.4,0-0.9-0.1-1.5-0.2c-0.6-0.1-1.4-0.3-2.2-0.5c-1.6-0.5-2.9-0.7-3.8-0.7c-0.9,0-1.8,0.2-2.7,0.6c-1.4,0.6-2.7,2.3-4.2,5.3
	L266.5,161.2z M276.6,132.8c-0.3,0-0.8-0.1-1.4-0.2c-0.6-0.1-1.4-0.2-2.4-0.4c-1.6-0.3-2.9-0.5-4-0.5c-2.3,0-3.8,0.8-4.5,2.3
	c1-0.5,2.1-0.8,3.3-0.8c0.4,0,0.9,0,1.6,0.1c0.6,0.1,1.4,0.2,2.3,0.4c0.9,0.2,1.6,0.3,2.3,0.4c0.6,0.1,1.2,0.1,1.6,0.1
	c0.2,0,0.4,0,0.6,0c0.2,0,0.4,0,0.6-0.1L276.6,132.8z"/>
<path d="M329.6,179.2l-6.8-1.2h-34c0.1-0.3,0.2-0.7,0.2-1.2c0-0.2,0-0.4-0.1-0.8c0-0.3-0.1-0.7-0.1-1c0-0.3-0.1-0.7-0.1-1
	c0-0.3-0.1-0.6-0.1-0.7c0-1.4,0.6-2.1,1.7-2.1c0.2,0,0.6,0,1,0.1l1.1-2.1l-0.2-36.7c-0.7-1.3-1.8-2-3.3-1.9
	c-0.1-0.7-0.2-1.8-0.2-3.1c0-0.9,0-1.7,0-2.2c0-0.5,0-0.9-0.1-1.1l36.7-0.2c1.7-0.5,2.7-0.7,3.1-0.7l1,12c-0.3,0-1,0-2.1,0.1
	c-1.1,0.2-1.9,0.3-2.4,0.3c-1.6,0-2.4-0.8-2.3-2.5c-1.8-1.7-4.4-2.6-7.9-2.6c-0.7,0-1.6,0-2.4,0.1c-0.9,0.1-1.8,0.2-2.9,0.4
	l0.3,11.5l12.4,0.3c1.2-0.7,1.6-1.9,1.4-3.6c0.7-0.2,1.6-0.3,2.8-0.3h2.9l0.3,14.9c-2.7,0.3-4.7,0.2-5.9-0.3
	c0.2-1.7-0.2-2.8-1.4-3.5h-12.4v21c1.7,0.1,3.1,0.2,4.3,0.2c5,0,8.3-1.6,9.8-4.7l0.7-3.8l5.9,0.2L329.6,179.2z M296.6,171.7h1.6
	v-40.4l-1.6-0.3V171.7z"/>
<path d="M374.9,157.1c0,0.4,0.1,0.8,0.1,1.1c0,0.4,0,0.8,0,1.2c0,5.3-1.9,9.9-5.8,13.6c-4.3,4.2-10.1,6.3-17.2,6.3
	c-3.2,0-6.3-0.5-9.5-1.4c-5.1-1.5-9.5-3.8-13.2-7l8.6-13c2.2,2.1,4.2,3.8,5.8,5.2c1.7,1.4,3,2.4,4.1,3.2c3.9,2.6,7.7,3.8,11.6,3.8
	c0.4,0,0.8,0,1.2,0c0.4,0,0.8-0.1,1.1-0.1c1.3-0.2,2.3-1.3,3.1-3.3c0.1-2.1-0.8-3.7-2.8-4.7c-0.9-0.4-2.2-0.9-3.9-1.5
	c-1.7-0.6-3.9-1.3-6.6-2.1c-2.3-0.7-4.3-1.4-6-2.1c-1.7-0.7-3.1-1.4-4.2-2.1c-3.3-2.1-5.7-5-7-8.6c-0.1-1-0.2-2-0.2-3.1
	c0-7.1,2.9-12.3,8.6-15.8c3.5-2.1,7.6-3.2,12.3-3.2c6.7,0,12.9,1.9,18.7,5.8c-0.5,0.8-1,1.8-1.6,2.8c-0.6,1-1.3,2.1-2.2,3.2
	l-4.2,5.8l-8.3-6.5c-1.5-1.2-3.1-2-4.8-2.4c-1.7-0.4-3.3-0.5-4.8-0.3l-1.4,1c-0.6,0.4-0.9,0.9-1,1.3c-0.3,1.9,0.2,3.2,1.4,4
	c2,1.4,5.6,3,10.8,4.7c5.2,1.7,8.8,3.2,10.9,4.6C371.8,149.7,374,152.9,374.9,157.1z M334.1,170.2c5.5,4,10.9,6,16.4,6
	c0.9,0,1.9-0.1,2.8-0.2c-5.8-0.6-11.9-3-18.3-7.2C334.8,168.8,334.5,169.3,334.1,170.2z M367.4,165.4c0.1-0.3,0.3-0.6,0.5-0.8
	c0.2-0.6,0.3-1.1,0.3-1.7c0-1.8-0.7-3.3-2.2-4.6c-1.2-0.8-2.8-1.6-5-2.5c-2.2-0.9-4.9-1.9-8.1-2.9c-5.9-1.9-10.1-4-12.8-6.4
	c-1.4-1.6-2.2-3.7-2.2-6.4c0-1.6,0.3-3.1,1-4.5l-0.5,0.4c-1.1,1.5-1.6,3.5-1.6,5.8c0,1.6,0.3,3.1,1,4.5c1.9,2.5,4.7,4.6,8.3,6.2
	c0.6,0.3,1.8,0.7,3.4,1.3c1.6,0.6,3.7,1.3,6.4,2.2c2,0.6,3.8,1.3,5.4,2.1c1.6,0.7,2.9,1.5,4,2.2
	C366.7,161.6,367.4,163.4,367.4,165.4z M365.1,135.9c0.5-0.3,0.8-0.7,1-1.1c-4-3.6-8-5.2-11.9-4.9c1.7,0.2,3.6,1,5.7,2.4
	L365.1,135.9z"/>
<path d="M424.8,132.6c-0.2,0.2-0.3,0.6-0.3,1.2v1.4c-0.4-0.1-0.8-0.2-1.1-0.2c-0.4,0-0.9,0.1-1.7,0.2c-0.8,0.1-1.4,0.2-1.7,0.2
	c-1.6,0-2.5-0.7-2.6-2.2c-0.8-3.4-2.2-5.7-4.3-6.8c-0.2,0-0.4,0-0.8-0.1c-0.4-0.1-0.8-0.2-1.4-0.3c-0.8-0.2-1.6-0.2-2.4-0.1
	l0.3,48.1c0.4,1,1.6,1.5,3.4,1.5c1.7,0.1,2.6,0.7,2.6,1.7c0,0.4,0,0.7-0.1,0.9c-0.2,0.6-0.3,1.5-0.3,2.6v2.9h-32v-7.3
	c0.5-0.3,1.4-0.4,2.8-0.3c1.2,0,2-0.3,2.5-0.9l1.2-2.3V126c-2.8-0.2-5,0.4-6.7,1.9c-0.9,0.8-1.5,1.9-1.8,3.3c-0.3,1.4-0.6,2.7-0.8,4
	h-6.7l1-19.1l7.5,1l38.9-0.7c0.4-0.1,0.8-0.3,1.3-0.4c0.5-0.2,1.1-0.3,1.7-0.4c0.3,1.6,0.5,4.5,0.7,8.8
	C424,128.1,424.3,130.9,424.8,132.6z M393.5,175.7h1.9V126h-1.9V175.7z"/>
<g>
</g>
<g>
</g>
<g>
</g>
<g>
</g>
<g>
</g>
<g>
</g>
</svg>
