<?xml version="1.0" encoding="utf-8"?>
<!-- Generator: Adobe Illustrator 18.1.0, SVG Export Plug-In . SVG Version: 6.00 Build 0)  -->
<svg version="1.1" id="twitter" xmlns="http://www.w3.org/2000/svg" xmlns:xlink="http://www.w3.org/1999/xlink" x="0px" y="0px"
	 viewBox="211.2 11.2 537.6 537.6" enable-background="new 211.2 11.2 537.6 537.6" xml:space="preserve">
<circle fill="#000" cx="480" cy="280" r="268.8"/>
<path fill="#FFF" d="M628.2,204.4c-10.1,4.5-20.9,7.5-32.3,8.9c11.6-7,20.5-18.1,24.8-31.3c-10.9,6.5-22.9,11.2-35.8,13.7
	c-10.3-11-24.9-17.9-41.1-17.9c-31.1,0-56.3,25.4-56.3,56.6c0,4.4,0.5,8.8,1.5,12.9c-46.8-2.4-88.3-24.9-116-59.2
	c-4.8,8.4-7.6,18.1-7.6,28.5c0,19.6,9.9,37,25,47.1c-9.2-0.3-17.9-2.8-25.5-7.1c0,0.2,0,0.5,0,0.7c0,27.4,19.4,50.3,45.2,55.5
	c-4.7,1.3-9.7,2-14.8,2c-3.6,0-7.2-0.4-10.6-1c7.2,22.5,28,38.9,52.6,39.3c-19.3,15.2-43.5,24.2-69.9,24.2c-4.5,0-9-0.3-13.4-0.8
	c24.9,16.1,54.5,25.4,86.3,25.4c103.5,0,160.2-86.3,160.2-161.1c0-2.5-0.1-4.9-0.2-7.3C611.1,225.7,620.7,215.7,628.2,204.4z"/>
</svg>
